# xmcd
#
# Track frame offsets:
#	150
#	15498
#	35398
#	50444
#	61248
#	84358
#	108380
#	125120
#	142507
#	168849
#	188441
#
# Disc length: 2760 seconds
#
# Revision: 1
# Processed by: cddbd v1.5.2PL0 Copyright (c) Steve Scherf et al.
# Submitted via: audiograbber 1.83.01
#
DISCID=7d0ac60b
DTITLE=Aloud - Leave Your Light On
DYEAR=2006
DGENRE=Alternative
TTITLE0=Release
TTITLE1=Palm of Your Heart
TTITLE2=Beaches
TTITLE3=Can You Hear Me Now?
TTITLE4=All I Can Do
TTITLE5=Slipped in Your Dream
TTITLE6=Bleeding Heart
TTITLE7=Love is a Beast
TTITLE8=Wouldn't it Be Sweet
TTITLE9=Late Last Nite
TTITLE10=Godspeed
EXTD=
EXTT0=
EXTT1=
EXTT2=
EXTT3=
EXTT4=
EXTT5=
EXTT6=
EXTT7=
EXTT8=
EXTT9=
EXTT10=
PLAYORDER=
